<mxfile host="app.diagrams.net" modified="2021-09-28T14:16:38.166Z" agent="5.0 (Windows NT 6.1; Win64; x64) AppleWebKit/537.36 (KHTML, like Gecko) Chrome/94.0.4606.61 Safari/537.36" etag="-gF6mYc9dvu4UsFpnCpW" version="15.3.5" type="github">
  <diagram id="2RgotZ7ccC4W6FY9p7ux" name="Page-1">
    <mxGraphModel dx="1422" dy="794" grid="1" gridSize="10" guides="1" tooltips="1" connect="1" arrows="1" fold="1" page="1" pageScale="1" pageWidth="827" pageHeight="1169" math="0" shadow="0">
      <root>
        <mxCell id="0" />
        <mxCell id="1" parent="0" />
        <mxCell id="_a-phknBDpWj1Egvjoep-1" value="&lt;font style=&quot;font-size: 18px&quot;&gt;Start&lt;/font&gt;" style="rounded=1;whiteSpace=wrap;html=1;hachureGap=4;pointerEvents=0;" vertex="1" parent="1">
          <mxGeometry x="360" y="90" width="120" height="60" as="geometry" />
        </mxCell>
        <mxCell id="_a-phknBDpWj1Egvjoep-2" value="&lt;font style=&quot;font-size: 18px&quot;&gt;&lt;div&gt;\&amp;nbsp; &amp;nbsp; /\&lt;/div&gt;&lt;div&gt;&amp;nbsp;)&amp;nbsp; ( &#39;)&lt;/div&gt;&lt;div&gt;(&amp;nbsp; /&amp;nbsp; )&lt;/div&gt;&lt;div&gt;&amp;nbsp;\(__)|&lt;/div&gt;&lt;/font&gt;" style="shape=parallelogram;perimeter=parallelogramPerimeter;whiteSpace=wrap;html=1;fixedSize=1;hachureGap=4;pointerEvents=0;" vertex="1" parent="1">
          <mxGeometry x="360" y="200" width="120" height="120" as="geometry" />
        </mxCell>
        <mxCell id="_a-phknBDpWj1Egvjoep-3" value="" style="endArrow=classic;html=1;startSize=14;endSize=14;sourcePerimeterSpacing=8;targetPerimeterSpacing=8;" edge="1" parent="1" source="_a-phknBDpWj1Egvjoep-1" target="_a-phknBDpWj1Egvjoep-2">
          <mxGeometry width="50" height="50" relative="1" as="geometry">
            <mxPoint x="420" y="150" as="sourcePoint" />
            <mxPoint x="440" y="200" as="targetPoint" />
          </mxGeometry>
        </mxCell>
      </root>
    </mxGraphModel>
  </diagram>
</mxfile>
